<svg width="58" height="54" viewBox="0 0 58 54" fill="none" xmlns="http://www.w3.org/2000/svg">
<g clip-path="url(#clip0_17_19)">
<path d="M0 3.86775C0 1.73138 1.90675 0 4.25937 0H53.7406C56.0932 0 58 1.73138 58 3.86775V50.1323C58 52.2686 56.0932 54 53.7406 54H4.25937C1.90675 54 0 52.2686 0 50.1323V3.86775ZM17.9184 45.2048V20.8204H9.21475V45.2048H17.9184ZM13.5684 17.4893C16.6025 17.4893 18.4911 15.6195 18.4911 13.2773C18.4367 10.8844 16.6061 9.06525 13.6264 9.06525C10.6466 9.06525 8.7 10.8878 8.7 13.2773C8.7 15.6195 10.5886 17.4893 13.5104 17.4893H13.5684ZM31.3599 45.2048V31.5866C31.3599 30.8576 31.4179 30.1286 31.6499 29.6089C32.277 28.1542 33.7089 26.6456 36.1159 26.6456C39.266 26.6456 40.5239 28.8799 40.5239 32.1604V45.2048H49.2275V31.2188C49.2275 23.7262 44.9355 20.2433 39.208 20.2433C34.5897 20.2433 32.5199 22.6057 31.3599 24.2696V24.354H31.3019L31.3599 24.2696V20.8204H22.6599C22.7686 23.1086 22.6599 45.2048 22.6599 45.2048H31.3599Z" fill="#AABF4C"/>
</g>
<defs>
<clipPath id="clip0_17_19">
<rect width="58" height="54" fill="white"/>
</clipPath>
</defs>
</svg>
