<svg width="58" height="54" viewBox="0 0 58 54" fill="none" xmlns="http://www.w3.org/2000/svg">
<path d="M29 0C12.9775 0 0 12.0825 0 27C0 38.9475 8.30125 49.0388 19.8287 52.6163C21.2787 52.8525 21.8225 52.0425 21.8225 51.3338C21.8225 50.6925 21.7863 48.5663 21.7863 46.305C14.5 47.5538 12.615 44.6513 12.035 43.1325C11.7087 42.3563 10.295 39.96 9.0625 39.3188C8.0475 38.8125 6.5975 37.5638 9.02625 37.53C11.31 37.4963 12.9413 39.4875 13.485 40.2975C16.095 44.3813 20.2638 43.2338 21.9313 42.525C22.185 40.77 22.9462 39.5888 23.78 38.9138C17.3275 38.2388 10.585 35.91 10.585 25.5825C10.585 22.6463 11.7088 20.2163 13.5575 18.3263C13.2675 17.6513 12.2525 14.8838 13.8475 11.1713C13.8475 11.1713 16.2763 10.4625 21.8225 13.9388C24.1425 13.3313 26.6075 13.0275 29.0725 13.0275C31.5375 13.0275 34.0025 13.3313 36.3225 13.9388C41.8688 10.4288 44.2975 11.1713 44.2975 11.1713C45.8925 14.8838 44.8775 17.6513 44.5875 18.3263C46.4363 20.2163 47.56 22.6125 47.56 25.5825C47.56 35.9438 40.7813 38.2388 34.3288 38.9138C35.38 39.7575 36.2863 41.3775 36.2863 43.9088C36.2863 47.52 36.25 50.4225 36.25 51.3338C36.25 52.0425 36.7938 52.8863 38.2438 52.6163C44.0017 50.8081 49.0052 47.3636 52.5495 42.7681C56.0937 38.1726 58.0001 32.6575 58 27C58 12.0825 45.0225 0 29 0Z" fill="#AABF4C"/>
</svg>
