<svg width="58" height="54" viewBox="0 0 58 54" fill="none" xmlns="http://www.w3.org/2000/svg">
<g clip-path="url(#clip0_17_15)">
<path d="M29 0C21.1301 0 20.1405 0.03375 17.0484 0.162C13.9563 0.297 11.8501 0.74925 10.005 1.4175C8.06869 2.0936 6.31526 3.15697 4.86838 4.53263C3.39082 5.87973 2.24868 7.51222 1.5225 9.315C0.80475 11.0295 0.315375 12.9937 0.174 15.8625C0.03625 18.7481 0 19.6661 0 27.0034C0 34.3339 0.03625 35.2519 0.174 38.1308C0.319 41.0063 0.80475 42.9671 1.5225 44.685C2.26562 46.4602 3.25525 47.9655 4.86838 49.4674C6.47788 50.9692 8.09463 51.894 10.0014 52.5825C11.8501 53.2507 13.9526 53.7064 17.0411 53.838C20.1369 53.9662 21.1229 54 29 54C36.8771 54 37.8595 53.9662 40.9553 53.838C44.0401 53.703 46.1535 53.2507 47.9986 52.5825C49.9336 51.906 51.6858 50.8426 53.1316 49.4674C54.7447 47.9655 55.7344 46.4602 56.4775 44.685C57.1916 42.9671 57.681 41.0063 57.826 38.1308C57.9637 35.2519 58 34.3339 58 27C58 19.6661 57.9637 18.7481 57.826 15.8659C57.681 12.9938 57.1916 11.0295 56.4775 9.315C55.7513 7.51222 54.6092 5.87973 53.1316 4.53263C51.6847 3.15697 49.9313 2.0936 47.995 1.4175C46.1462 0.74925 44.0365 0.293625 40.9516 0.162C37.8559 0.03375 36.8735 0 28.9928 0H29ZM26.4009 4.86675H29.0036C36.7466 4.86675 37.6637 4.89038 40.7196 5.022C43.5471 5.14013 45.0841 5.58225 46.1064 5.95013C47.4585 6.4395 48.4264 7.02675 49.4414 7.97175C50.4564 8.91675 51.0835 9.8145 51.6091 11.0768C52.0079 12.0251 52.4791 13.4561 52.606 16.0886C52.7474 18.9338 52.7764 19.7876 52.7764 26.9933C52.7764 34.1989 52.7474 35.0561 52.606 37.9012C52.4791 40.5337 52.0043 41.9614 51.6091 42.9131C51.1409 44.0839 50.3992 45.1433 49.4377 46.0147C48.4227 46.9597 47.4585 47.5436 46.1028 48.033C45.0878 48.4043 43.5507 48.843 40.7196 48.9645C37.6637 49.0928 36.7466 49.1231 29.0036 49.1231C21.2606 49.1231 20.3399 49.0928 17.284 48.9645C14.4565 48.843 12.9231 48.4043 11.9009 48.033C10.6424 47.5985 9.50329 46.9091 8.56587 46.0147C7.60262 45.1427 6.85969 44.0821 6.39088 42.9097C5.99575 41.9614 5.52088 40.5304 5.394 37.8979C5.25625 35.0528 5.22725 34.1989 5.22725 26.9865C5.22725 19.7741 5.25625 18.927 5.394 16.0819C5.5245 13.4494 5.99575 12.0184 6.3945 11.0666C6.92013 9.80775 7.55087 8.90662 8.56587 7.96162C9.58087 7.01662 10.5451 6.43275 11.9009 5.94338C12.9231 5.57213 14.4565 5.13338 17.284 5.01188C19.9593 4.89713 20.996 4.86338 26.4009 4.86V4.86675ZM44.4824 9.34875C44.0254 9.34875 43.5728 9.43256 43.1506 9.59538C42.7284 9.75821 42.3448 9.99686 42.0216 10.2977C41.6985 10.5986 41.4422 10.9558 41.2673 11.3489C41.0924 11.742 41.0024 12.1633 41.0024 12.5888C41.0024 13.0142 41.0924 13.4355 41.2673 13.8286C41.4422 14.2217 41.6985 14.5789 42.0216 14.8798C42.3448 15.1806 42.7284 15.4193 43.1506 15.5821C43.5728 15.7449 44.0254 15.8288 44.4824 15.8288C45.4053 15.8288 46.2905 15.4874 46.9431 14.8798C47.5957 14.2722 47.9624 13.4481 47.9624 12.5888C47.9624 11.7294 47.5957 10.9053 46.9431 10.2977C46.2905 9.69011 45.4053 9.34875 44.4824 9.34875ZM29.0036 13.1355C27.0283 13.1068 25.0665 13.4443 23.2325 14.1282C21.3986 14.8122 19.7291 15.829 18.3213 17.1194C16.9135 18.4099 15.7954 19.9482 15.0323 21.6448C14.2692 23.3413 13.8761 25.1623 13.8761 27.0017C13.8761 28.841 14.2692 30.662 15.0323 32.3586C15.7954 34.0552 16.9135 35.5935 18.3213 36.8839C19.7291 38.1744 21.3986 39.1912 23.2325 39.8751C25.0665 40.5591 27.0283 40.8966 29.0036 40.8679C32.9133 40.8111 36.6423 39.3252 39.3855 36.731C42.1288 34.1367 43.6664 30.6422 43.6664 27.0017C43.6664 23.3612 42.1288 19.8666 39.3855 17.2724C36.6423 14.6782 32.9133 13.1923 29.0036 13.1355ZM29.0036 17.9989C30.2732 17.9989 31.5304 18.2317 32.7034 18.684C33.8763 19.1364 34.9421 19.7994 35.8398 20.6352C36.7376 21.4711 37.4497 22.4634 37.9356 23.5554C38.4214 24.6475 38.6715 25.818 38.6715 27C38.6715 28.182 38.4214 29.3525 37.9356 30.4446C37.4497 31.5366 36.7376 32.5289 35.8398 33.3648C34.9421 34.2006 33.8763 34.8636 32.7034 35.316C31.5304 35.7683 30.2732 36.0011 29.0036 36.0011C26.4395 36.0011 23.9805 35.0528 22.1674 33.3648C20.3543 31.6767 19.3358 29.3872 19.3358 27C19.3358 24.6128 20.3543 22.3233 22.1674 20.6352C23.9805 18.9472 26.4395 17.9989 29.0036 17.9989Z" fill="#DCF85E"/>
</g>
<defs>
<clipPath id="clip0_17_15">
<rect width="58" height="54" fill="white"/>
</clipPath>
</defs>
</svg>
